<svg id="Capa_1" data-name="Capa 1" xmlns="http://www.w3.org/2000/svg" viewBox="0 0 198.94 58.77"><defs><style>.cls-1{fill:#f28917}.cls-2{fill:#fff}</style></defs><path class="cls-1" d="M44.31 38.58L27.58 21.07l-4 3.85 16.72 17.5a3.8 3.8 0 01-.11 5.34l-1.74 1.67-8.17 7.86a3.71 3.71 0 01-2.59 1.05h-.1A3.71 3.71 0 0125 57.18l-5-5.26-4.05-4.24a.63.63 0 01-.1-.12 3.8 3.8 0 01-.98-2.56 3.75 3.75 0 011.07-2.55l1.1-1.23-3.72-4-.93.95c-.69.75-1.25 1.41-1.62 1.91a9.3 9.3 0 001.11 11.46L14 53.67 21 61a9.2 9.2 0 006.51 2.86h.2a9.2 9.2 0 006.42-2.59l5.72-5.5 4.19-4a9.36 9.36 0 00.27-13.19z" transform="translate(-9.23 -5.11)"/><path class="cls-2" d="M29.13 49.54l4.15-4L16 27.31a3.92 3.92 0 01.15-5.53L18 20l8.51-8.09a3.91 3.91 0 012.69-1.07h.1a3.85 3.85 0 012.7 1.25l5.17 5.47L41.38 22l.11.12a3.92 3.92 0 01-.15 5.31l-1.16 1.29L44 32.88l1-1c.73-.78 1.3-1.45 1.69-2A9.67 9.67 0 0045.55 18l-2.12-2.25-7.22-7.63a9.56 9.56 0 00-6.74-3h-.21a9.59 9.59 0 00-6.68 2.65l-5.95 5.66-4.4 4.17a9.72 9.72 0 00-.36 13.69zM74.79 39H60.11a2.05 2.05 0 01-2-2v-9.1a2 2 0 01.6-1.45 2 2 0 011.44-.6h8.42a2 2 0 011.34.59 2.07 2.07 0 01.61 1.4l.1 1.37h4.1v-1.19a15.5 15.5 0 00-.17-1.62 6.22 6.22 0 00-6.06-4.77h-8.41a6.25 6.25 0 00-6.21 6.25V37a6.24 6.24 0 006.24 6.22h14.68zm24.73-6.48v-4.63a6.25 6.25 0 00-1.82-4.41 6.17 6.17 0 00-4-1.82h-9.38a6.17 6.17 0 00-4 1.82 6.25 6.25 0 00-1.82 4.41v9.17a6 6 0 00.34 2 6.25 6.25 0 005.4 4.2h9.44a6.25 6.25 0 005.4-4.2 6 6 0 00.34-2v-4.54zm-4.18 3.31v1.22a2.06 2.06 0 01-1.82 2H84.6a2.06 2.06 0 01-1.82-2v-9.17a2 2 0 012-2.05h8.52a2 2 0 011.45.6 2.09 2.09 0 01.6 1.45v7.95zM189 32.52v-4.63a6.23 6.23 0 00-5.77-6.23h-9.38a6.22 6.22 0 00-5.78 6.23v9.17a6 6 0 00.34 2 6.23 6.23 0 005.4 4.2h9.44a6.22 6.22 0 005.75-6.2v-4.54zm-4.18 3.31v1.22a2.05 2.05 0 01-1.81 2h-8.93a2.05 2.05 0 01-1.81-2v-9.17a2 2 0 01.6-1.45 2 2 0 011.44-.6h8.49a2 2 0 011.44.6 2 2 0 01.6 1.45v7.95zm23.02 3.65h-9c-.86 0-1.28-.32-1.28-1V21.92c0-.19-.11-.29-.33-.29h-4.14c-.22 0-.33.1-.33.29v16.25a5.06 5.06 0 001.24 3.65 5.87 5.87 0 003.9 1.41 2.25 2.25 0 00.4 0h9.59c.22 0 .33-.1.33-.29v-3.2c-.05-.17-.16-.26-.38-.26zM121.9 21.63h-4.13c-.23 0-.33.1-.33.29V39c0 .2-.08.29-.24.29s-.26-.09-.33-.29l-.16-.54L113.43 27l-.78-2.51-.22-.71v-.12a2.88 2.88 0 00-1.22-1.47 6 6 0 00-3-.59 9.68 9.68 0 00-2.36.25 3.64 3.64 0 00-1.51.76 2.77 2.77 0 00-.7 1.05l-.09.27a5.05 5.05 0 00-.12.56 8.43 8.43 0 00-.11 1.39v16.9q0 .45.33.45h4.13q.33 0 .33-.45v-16.9c0-.17.08-.26.23-.26s.24.09.3.26l.31 1 3.33 11.52.06.18.1.34.68 2.19a2.51 2.51 0 00.43.78 4.37 4.37 0 00.65.64 4.26 4.26 0 00.85.49 2.07 2.07 0 00.84.19h3a2.84 2.84 0 001.31-.21 3.49 3.49 0 001.06-.8 1.66 1.66 0 00.16-.21l.17-.21a7.45 7.45 0 00.64-2.84v-17c0-.21-.11-.31-.33-.31z" transform="translate(-9.23 -5.11)"/><path class="cls-1" d="M69.3 51.31h-1.11c-1 0-1.41-.39-1.41-1.22s.71-1.41 2.17-1.41a7.72 7.72 0 012.75.48l.24.09v-1.43h-.13a10.87 10.87 0 00-2.81-.41c-2.42 0-3.65.9-3.65 2.68s1 2.55 2.89 2.55h1.06c1 0 1.47.39 1.47 1.22 0 1-.67 1.46-2 1.46a8.7 8.7 0 01-2.88-.47l-.23-.09v1.43h.13a11.32 11.32 0 003 .37c2.33 0 3.52-.92 3.52-2.73s-1.06-2.52-3.01-2.52z" transform="translate(-9.23 -5.11)"/><path class="cls-1" d="M64.62 44.73h1.47v6.69h-1.47zm0-2.53h1.47v1.41h-1.47z"/><path class="cls-1" d="M80 52.5h-1c-.72 0-.82-.36-.82-.67s0-.73 1.41-.73a6.93 6.93 0 012.19.36l.24.07v-1.35h-.13a9 9 0 00-2.3-.31c-1.87 0-2.82.67-2.82 2s.77 2.05 2.23 2.05h1c.78 0 .88.35.88.66s0 .73-1.34.73a7.23 7.23 0 01-2.2-.35l-.23-.08v1.35h.13a9 9 0 002.3.3c1.86 0 2.81-.67 2.81-2-.05-.92-.46-2.03-2.35-2.03zm4.75-3.68h-1v5.83c0 1.23.61 1.88 1.77 1.88h1.24v-1.26h-.95c-.27 0-.59-.08-.59-.71V51.1h1.54v-1.26H85zm6.54 1.02c-2.05 0-3.09 1.1-3.09 3.27s1.16 3.42 3.44 3.42a8 8 0 002.09-.24h.13V55l-.23.07a7 7 0 01-1.87.23c-1.33 0-2-.52-2.09-1.58h4.43v-.16a6.15 6.15 0 00.06-.84 2.54 2.54 0 00-2.87-2.88zm0 1.25a1.26 1.26 0 011.44 1.31h-3a1.39 1.39 0 011.56-1.31zm11.44-1.25a3.35 3.35 0 00-2 .79 2.22 2.22 0 00-1.92-.79 3.06 3.06 0 00-1.88.66l-.15-.66h-1.12v6.69h1.47v-4.69a2 2 0 011.51-.72c.43 0 1 .14 1 1.26v4.15h1.47v-4.69a2.07 2.07 0 011.5-.72c.43 0 1 .13 1 1.25v4.16h1.47v-4.1c.01-1.69-.8-2.59-2.35-2.59zm6.56 0a7.5 7.5 0 00-2.05.31h-.13v1.27l.23-.06a6.75 6.75 0 012-.3c1.53 0 1.53.69 1.53.92v.39a12.24 12.24 0 00-1.47-.1c-1.82 0-2.75.72-2.75 2.13 0 1 .42 2.09 2.44 2.09a3.77 3.77 0 002-.56l.34.56h.91V52c-.04-1.44-1.05-2.16-3.05-2.16zm.06 3.73a12.1 12.1 0 011.47.1v1.08a3 3 0 01-1.78.52c-.67 0-1-.26-1-.85.03-.36.16-.85 1.31-.85zm7.55-1.07h-.9c-.72 0-.82-.36-.82-.67s0-.73 1.41-.73a7 7 0 012.2.36l.23.07v-1.35h-.13a9 9 0 00-2.3-.31c-1.87 0-2.82.67-2.82 2s.78 2.05 2.23 2.05h.91c.78 0 .88.35.88.66s0 .73-1.34.73a7.23 7.23 0 01-2.2-.35l-.23-.08v1.35h.13a9 9 0 002.3.3c1.87 0 2.81-.67 2.81-2-.01-.92-.42-2.03-2.36-2.03z" transform="translate(-9.23 -5.11)"/><path class="cls-1" d="M114.41 42.43h1.47v8.99h-1.47z"/><path class="cls-1" d="M129.88 49.84a3.4 3.4 0 00-2 .68l-.17-.68h-1.07v6.69h1.47v-4.7a2.44 2.44 0 011.65-.71c.83 0 1.22.4 1.22 1.24v4.17h1.48v-4.15a2.28 2.28 0 00-2.58-2.54zm12.12 0c-2.12 0-3.19 1.13-3.19 3.35s1.08 3.34 3.19 3.34 3.2-1.13 3.2-3.34-1.06-3.35-3.2-3.35zm0 5.43c-1.16 0-1.72-.69-1.72-2.11s.56-2.06 1.72-2.06 1.72.68 1.72 2.06-.54 2.11-1.72 2.11zm5.94-4.77l-.17-.66h-1.07v6.69h1.48v-4.71a2.12 2.12 0 011.66-.7h.16v-1.28h-.18a2.91 2.91 0 00-1.88.66zm10.66-.66a3.33 3.33 0 00-2 .79 2.22 2.22 0 00-1.92-.79 3.06 3.06 0 00-1.88.66l-.15-.66h-1.08v6.69H153v-4.69a2 2 0 011.51-.72c.43 0 1 .14 1 1.26v4.15H157v-4.69a2.11 2.11 0 011.49-.72c.44 0 1 .13 1 1.25v4.16H161v-4.1c0-1.69-.85-2.59-2.4-2.59z" transform="translate(-9.23 -5.11)"/><path class="cls-1" d="M158.27 42.2h-1.97l-1.23 1.8h1.4l1.8-1.8z"/><path class="cls-1" d="M165.15 49.84a7.39 7.39 0 00-2.05.31h-.13v1.27l.23-.06a6.75 6.75 0 012-.3c1.53 0 1.53.69 1.53.92v.39a12.4 12.4 0 00-1.48-.1c-1.82 0-2.75.72-2.75 2.13 0 1 .43 2.09 2.44 2.09a3.77 3.77 0 002-.56l.35.56h.9V52c-.04-1.44-1.05-2.16-3.04-2.16zm0 3.73a12.26 12.26 0 011.48.1v1.08a3 3 0 01-1.79.52c-.67 0-1-.26-1-.85.09-.36.22-.85 1.36-.85zm5.49-4.75h-1v5.83c0 1.23.61 1.88 1.77 1.88h1.24v-1.26h-.95c-.28 0-.59-.08-.59-.71V51.1h1.54v-1.26h-1.75z" transform="translate(-9.23 -5.11)"/><path class="cls-1" d="M164.88 42.2h1.47v1.41h-1.47zm0 2.53h1.47v6.69h-1.47z"/><path class="cls-1" d="M180.61 49.84c-2.36 0-3.56 1.09-3.56 3.23 0 2.3 1.2 3.46 3.56 3.46a8 8 0 001.73-.18h.14v-1.3l-.22.05a8.19 8.19 0 01-1.71.17c-1.37 0-2-.72-2-2.2s.66-2 2-2a7.48 7.48 0 011.71.18h.22v-1.19h-.14a7.4 7.4 0 00-1.73-.22zm6.52 0c-2.12 0-3.2 1.13-3.2 3.35s1.09 3.34 3.2 3.34 3.19-1.13 3.19-3.34-1.07-3.35-3.19-3.35zm0 5.43c-1.16 0-1.73-.69-1.73-2.11s.57-2.06 1.73-2.06 1.72.68 1.72 2.06-.56 2.11-1.72 2.11zM195 52.5h-1c-.73 0-.82-.36-.82-.67s0-.73 1.4-.73a6.94 6.94 0 012.2.36l.23.07v-1.35h-.13a9 9 0 00-2.3-.31c-1.86 0-2.81.67-2.81 2s.77 2.05 2.23 2.05h1c.77 0 .87.35.87.66s0 .73-1.34.73a7.32 7.32 0 01-2.2-.35l-.23-.08v1.35h.13a9 9 0 002.3.3c1.87 0 2.81-.67 2.81-2-.05-.92-.45-2.03-2.34-2.03z" transform="translate(-9.23 -5.11)"/><path class="cls-2" d="M142.63 21.64h-16.24c-.22 0-.33.1-.33.31v3.43c0 .21.11.31.33.31h5.39c.22 0 .33.1.33.31v17c0 .21.11.31.33.31h4.13c.22 0 .33-.1.33-.31V26c0-.21.11-.31.34-.31h5.39c.22 0 .32-.1.32-.31V22c.05-.26-.1-.36-.32-.36zm15.59 3.78h-6.48c-.22 0-.33.1-.33.29v.09H159a1.26 1.26 0 00-.78-.38z" transform="translate(-9.23 -5.11)"/><path class="cls-2" d="M158.47 27.37a3.22 3.22 0 001.14-.27c.08-.11-.09-.53-.17-.73a1.51 1.51 0 00-1.28-.69zm1.15-.63a3 3 0 01.08.32 3 3 0 00-.08-.32zm-.13-.28a1.12 1.12 0 01.11.25 1.12 1.12 0 00-.11-.25zm.21.6a4.79 4.79 0 010 .68 4.7 4.7 0 000-.68z" transform="translate(-9.23 -5.11)"/><path class="cls-2" d="M164.64 42.07l-.24-.64-.51-1.65-.93-2.5c-.17-.47-.36-.92-.57-1.36a7.05 7.05 0 00-1.08-1.53.27.27 0 010-.12.17.17 0 010-.14l.08-.09a6.1 6.1 0 00.68-.38 6 6 0 002.32-5v-1.5a9.68 9.68 0 00-.24-1.4 5.11 5.11 0 00-3.1-3.78 5 5 0 00-1.82-.34H147c-.22 0-.33.1-.33.31V43c0 .19.11.29.33.29h4.13c.22 0 .33-.1.33-.29v-7.41q0-.3.33-.3h4a2.21 2.21 0 011.88 1.81l.81 2 .63 1.73.22.62.07.19.58 1.6h5zm-4.89-14.26v.74a4.21 4.21 0 01-.24 1.26 2.12 2.12 0 01-.72 1 1.79 1.79 0 01-1 .41h-6c-.25 0-.37-.1-.37-.29V26c0-.21.11-.31.33-.31h6.42a1.51 1.51 0 011.28.69.35.35 0 010 .08 1.12 1.12 0 01.11.25 3 3 0 01.08.32 4.7 4.7 0 010 .68v.06zm-.01.74z" transform="translate(-9.23 -5.11)"/><path class="cls-2" d="M159.48 26.43a.35.35 0 000-.08.41.41 0 01.05.09zm.26 1.38v-.06zm-.14-1.1zm-.21-.46l-.12-.15a2.72 2.72 0 01.16.25.55.55 0 01-.04-.1z" transform="translate(-9.23 -5.11)"/><path class="cls-1" d="M136.68 47.23c-1.85 0-2.78.84-2.78 2.48v6.82h1.47V51.1h2v-1.26h-2v-.18c0-.79.41-1.16 1.31-1.16a3.64 3.64 0 01.67 0v-1.21a4.91 4.91 0 00-.67-.06z" transform="translate(-9.23 -5.11)"/></svg>