<svg data-name="Capa 1" xmlns="http://www.w3.org/2000/svg" viewBox="0 0 38.97 58.77"><path d="M35.08 33.47L18.35 15.96l-4 3.85 16.72 17.5a3.8 3.8 0 01-.11 5.34l-1.74 1.67-8.17 7.86a3.71 3.71 0 01-2.59 1.05h-.1a3.71 3.71 0 01-2.59-1.16l-5-5.26-4.05-4.24a.63.63 0 01-.1-.12 3.8 3.8 0 01-.98-2.56 3.75 3.75 0 011.07-2.55l1.1-1.23-3.72-4-.93.95c-.69.75-1.25 1.41-1.62 1.91a9.3 9.3 0 001.11 11.46l2.12 2.13 7 7.33a9.2 9.2 0 006.51 2.86h.2a9.2 9.2 0 006.42-2.59l5.72-5.5 4.19-4a9.36 9.36 0 00.27-13.19z" fill="#f28917"/><path d="M19.9 44.43l4.15-4L6.77 22.2a3.92 3.92 0 01.15-5.53l1.85-1.78 8.51-8.09a3.91 3.91 0 012.69-1.07h.1a3.85 3.85 0 012.7 1.25l5.17 5.47 4.21 4.44.11.12a3.92 3.92 0 01-.15 5.31l-1.16 1.29 3.82 4.16 1-1c.73-.78 1.3-1.45 1.69-2a9.67 9.67 0 00-1.14-11.88l-2.12-2.25-7.22-7.63a9.56 9.56 0 00-6.74-3h-.21a9.59 9.59 0 00-6.68 2.65L7.4 8.32 3 12.49a9.72 9.72 0 00-.36 13.69z" fill="#fff"/></svg>