<svg id="Capa_1" data-name="Capa 1" xmlns="http://www.w3.org/2000/svg" viewBox="0 0 198.94 58.77"><defs><style>.cls-2{fill:#fff}</style></defs><path d="M44.31 38.58L27.58 21.07l-4 3.85 16.72 17.5a3.8 3.8 0 01-.11 5.34l-1.74 1.67-8.17 7.86a3.71 3.71 0 01-2.59 1.05h-.1A3.71 3.71 0 0125 57.18l-5-5.26-4.05-4.24a.63.63 0 01-.1-.12 3.8 3.8 0 01-.98-2.56 3.75 3.75 0 011.07-2.55l1.1-1.23-3.72-4-.93.95c-.69.75-1.25 1.41-1.62 1.91a9.3 9.3 0 001.11 11.46L14 53.67 21 61a9.2 9.2 0 006.51 2.86h.2a9.2 9.2 0 006.42-2.59l5.72-5.5 4.19-4a9.36 9.36 0 00.27-13.19z" transform="translate(-9.23 -5.11)" fill="#f28917"/><path class="cls-2" d="M29.13 49.54l4.15-4L16 27.31a3.92 3.92 0 01.15-5.53L18 20l8.51-8.09a3.91 3.91 0 012.69-1.07h.1a3.85 3.85 0 012.7 1.25l5.17 5.47L41.38 22l.11.12a3.92 3.92 0 01-.15 5.31l-1.16 1.29L44 32.88l1-1c.73-.78 1.3-1.45 1.69-2A9.67 9.67 0 0045.55 18l-2.12-2.25-7.22-7.63a9.56 9.56 0 00-6.74-3h-.21a9.59 9.59 0 00-6.68 2.65l-5.95 5.66-4.4 4.17a9.72 9.72 0 00-.36 13.69zM74.79 39H60.11a2.05 2.05 0 01-2-2v-9.1a2 2 0 01.6-1.45 2 2 0 011.44-.6h8.42a2 2 0 011.34.59 2.07 2.07 0 01.61 1.4l.1 1.37h4.1v-1.19a15.5 15.5 0 00-.17-1.62 6.22 6.22 0 00-6.06-4.77h-8.41a6.25 6.25 0 00-6.21 6.25V37a6.24 6.24 0 006.24 6.22h14.68zm24.73-6.48v-4.63a6.25 6.25 0 00-1.82-4.41 6.17 6.17 0 00-4-1.82h-9.38a6.17 6.17 0 00-4 1.82 6.25 6.25 0 00-1.82 4.41v9.17a6 6 0 00.34 2 6.25 6.25 0 005.4 4.2h9.44a6.25 6.25 0 005.4-4.2 6 6 0 00.34-2v-4.54zm-4.18 3.31v1.22a2.06 2.06 0 01-1.82 2H84.6a2.06 2.06 0 01-1.82-2v-9.17a2 2 0 012-2.05h8.52a2 2 0 011.45.6 2.09 2.09 0 01.6 1.45v7.95zM189 32.52v-4.63a6.23 6.23 0 00-5.77-6.23h-9.38a6.22 6.22 0 00-5.78 6.23v9.17a6 6 0 00.34 2 6.23 6.23 0 005.4 4.2h9.44a6.22 6.22 0 005.75-6.2v-4.54zm-4.18 3.31v1.22a2.05 2.05 0 01-1.81 2h-8.93a2.05 2.05 0 01-1.81-2v-9.17a2 2 0 01.6-1.45 2 2 0 011.44-.6h8.49a2 2 0 011.44.6 2 2 0 01.6 1.45v7.95zm23.02 3.65h-9c-.86 0-1.28-.32-1.28-1V21.92c0-.19-.11-.29-.33-.29h-4.14c-.22 0-.33.1-.33.29v16.25a5.06 5.06 0 001.24 3.65 5.87 5.87 0 003.9 1.41 2.25 2.25 0 00.4 0h9.59c.22 0 .33-.1.33-.29v-3.2c-.05-.17-.16-.26-.38-.26zM121.9 21.63h-4.13c-.23 0-.33.1-.33.29V39c0 .2-.08.29-.24.29s-.26-.09-.33-.29l-.16-.54L113.43 27l-.78-2.51-.22-.71v-.12a2.88 2.88 0 00-1.22-1.47 6 6 0 00-3-.59 9.68 9.68 0 00-2.36.25 3.64 3.64 0 00-1.51.76 2.77 2.77 0 00-.7 1.05l-.09.27a5.05 5.05 0 00-.12.56 8.43 8.43 0 00-.11 1.39v16.9q0 .45.33.45h4.13q.33 0 .33-.45v-16.9c0-.17.08-.26.23-.26s.24.09.3.26l.31 1 3.33 11.52.06.18.1.34.68 2.19a2.51 2.51 0 00.43.78 4.37 4.37 0 00.65.64 4.26 4.26 0 00.85.49 2.07 2.07 0 00.84.19h3a2.84 2.84 0 001.31-.21 3.49 3.49 0 001.06-.8 1.66 1.66 0 00.16-.21l.17-.21a7.45 7.45 0 00.64-2.84v-17c0-.21-.11-.31-.33-.31zm20.73.01h-16.24c-.22 0-.33.1-.33.31v3.43c0 .21.11.31.33.31h5.39c.22 0 .33.1.33.31v17c0 .21.11.31.33.31h4.13c.22 0 .33-.1.33-.31V26c0-.21.11-.31.34-.31h5.39c.22 0 .32-.1.32-.31V22c.05-.26-.1-.36-.32-.36zm15.59 3.78h-6.48c-.22 0-.33.1-.33.29v.09H159a1.26 1.26 0 00-.78-.38z" transform="translate(-9.23 -5.11)"/><path class="cls-2" d="M158.47 27.37a3.22 3.22 0 001.14-.27c.08-.11-.09-.53-.17-.73a1.51 1.51 0 00-1.28-.69zm1.15-.63a3 3 0 01.08.32 3 3 0 00-.08-.32zm-.13-.28a1.12 1.12 0 01.11.25 1.12 1.12 0 00-.11-.25zm.21.6a4.79 4.79 0 010 .68 4.7 4.7 0 000-.68z" transform="translate(-9.23 -5.11)"/><path class="cls-2" d="M164.64 42.07l-.24-.64-.51-1.65-.93-2.5c-.17-.47-.36-.92-.57-1.36a7.05 7.05 0 00-1.08-1.53.27.27 0 010-.12.17.17 0 010-.14l.08-.09a6.1 6.1 0 00.68-.38 6 6 0 002.32-5v-1.5a9.68 9.68 0 00-.24-1.4 5.11 5.11 0 00-3.1-3.78 5 5 0 00-1.82-.34H147c-.22 0-.33.1-.33.31V43c0 .19.11.29.33.29h4.13c.22 0 .33-.1.33-.29v-7.41q0-.3.33-.3h4a2.21 2.21 0 011.88 1.81l.81 2 .63 1.73.22.62.07.19.58 1.6h5zm-4.89-14.26v.74a4.21 4.21 0 01-.24 1.26 2.12 2.12 0 01-.72 1 1.79 1.79 0 01-1 .41h-6c-.25 0-.37-.1-.37-.29V26c0-.21.11-.31.33-.31h6.42a1.51 1.51 0 011.28.69.35.35 0 010 .08 1.12 1.12 0 01.11.25 3 3 0 01.08.32 4.7 4.7 0 010 .68v.06zm-.01.74z" transform="translate(-9.23 -5.11)"/><path class="cls-2" d="M159.48 26.43a.35.35 0 000-.08.41.41 0 01.05.09zm.26 1.38v-.06zm-.14-1.1zm-.21-.46l-.12-.15a2.72 2.72 0 01.16.25.55.55 0 01-.04-.1z" transform="translate(-9.23 -5.11)"/></svg>