<svg id="Capa_1" data-name="Capa 1" xmlns="http://www.w3.org/2000/svg" viewBox="0 0 38.97 58.77"><defs><style>.cls-1{fill:#f28917;}.cls-2{fill:#fff;}</style></defs><path class="cls-1" d="M44.31,38.58,27.58,21.07l-4,3.85,16.72,17.5a3.8,3.8,0,0,1-.11,5.34l-1.74,1.67h0l-8.17,7.86a3.71,3.71,0,0,1-2.59,1.05h-.1A3.71,3.71,0,0,1,25,57.18l-5-5.26h0l-4.05-4.24a.63.63,0,0,1-.1-.12A3.8,3.8,0,0,1,14.87,45a3.75,3.75,0,0,1,1.07-2.55l0,0,1.1-1.23-3.72-4-.93.95c-.69.75-1.25,1.41-1.62,1.91a9.3,9.3,0,0,0,1.11,11.46L14,53.67h0L21,61a9.2,9.2,0,0,0,6.51,2.86h.2a9.2,9.2,0,0,0,6.42-2.59l5.72-5.5h0l4.19-4A9.36,9.36,0,0,0,44.31,38.58Z" transform="translate(-9.23 -5.11)"/><path class="cls-2" d="M29.13,49.54l4.15-4L16,27.31a3.92,3.92,0,0,1,.15-5.53L18,20h0l8.51-8.09a3.91,3.91,0,0,1,2.69-1.07h.1A3.85,3.85,0,0,1,32,12.09l5.17,5.47h0L41.38,22l.11.12a3.92,3.92,0,0,1-.15,5.31l0,0-1.16,1.29L44,32.88l1-1c.73-.78,1.3-1.45,1.69-2A9.67,9.67,0,0,0,45.55,18l-2.12-2.25h0L36.21,8.12a9.56,9.56,0,0,0-6.74-3h-.21a9.59,9.59,0,0,0-6.68,2.65l-5.95,5.66h0l-4.4,4.17a9.72,9.72,0,0,0-.36,13.69Z" transform="translate(-9.23 -5.11)"/></svg>