<svg id="Capa_1" data-name="Capa 1" xmlns="http://www.w3.org/2000/svg" viewBox="0 0 198.94 58.77"><defs><style>.cls-1{fill:#f28917;}.cls-2{fill:#fff;}</style></defs><path class="cls-1" d="M44.31,38.58,27.58,21.07l-4,3.85,16.72,17.5a3.8,3.8,0,0,1-.11,5.34l-1.74,1.67h0l-8.17,7.86a3.71,3.71,0,0,1-2.59,1.05h-.1A3.71,3.71,0,0,1,25,57.18l-5-5.26h0l-4.05-4.24a.63.63,0,0,1-.1-.12A3.8,3.8,0,0,1,14.87,45a3.75,3.75,0,0,1,1.07-2.55l0,0,1.1-1.23-3.72-4-.93.95c-.69.75-1.25,1.41-1.62,1.91a9.3,9.3,0,0,0,1.11,11.46L14,53.67h0L21,61a9.2,9.2,0,0,0,6.51,2.86h.2a9.2,9.2,0,0,0,6.42-2.59l5.72-5.5h0l4.19-4A9.36,9.36,0,0,0,44.31,38.58Z" transform="translate(-9.23 -5.11)"/><path class="cls-2" d="M29.13,49.54l4.15-4L16,27.31a3.92,3.92,0,0,1,.15-5.53L18,20h0l8.51-8.09a3.91,3.91,0,0,1,2.69-1.07h.1A3.85,3.85,0,0,1,32,12.09l5.17,5.47h0L41.38,22l.11.12a3.92,3.92,0,0,1-.15,5.31l0,0-1.16,1.29L44,32.88l1-1c.73-.78,1.3-1.45,1.69-2A9.67,9.67,0,0,0,45.55,18l-2.12-2.25h0L36.21,8.12a9.56,9.56,0,0,0-6.74-3h-.21a9.59,9.59,0,0,0-6.68,2.65l-5.95,5.66h0l-4.4,4.17a9.72,9.72,0,0,0-.36,13.69Z" transform="translate(-9.23 -5.11)"/><path class="cls-2" d="M74.79,39l-7.11,0-7.57,0a2.05,2.05,0,0,1-2-2V33.81h0v-.06h0V30.9h0v-3a2,2,0,0,1,.6-1.45,2,2,0,0,1,1.44-.6h8.42a2,2,0,0,1,1.34.59,2.07,2.07,0,0,1,.61,1.4h0l.1,1.37,4.1,0,0-1.19a15.5,15.5,0,0,0-.17-1.62,6.22,6.22,0,0,0-6.06-4.77H60.08a6.25,6.25,0,0,0-6.21,6.25v2.71h0v2.75h0v.66h0v.26h0V37a6.24,6.24,0,0,0,6.24,6.22h7.77l6.91,0Z" transform="translate(-9.23 -5.11)"/><path class="cls-2" d="M99.52,32.52V31.8h0V30.6h0V27.89a6.25,6.25,0,0,0-1.82-4.41,6.17,6.17,0,0,0-4-1.82l-.44,0h-8.5l-.44,0a6.17,6.17,0,0,0-4,1.82,6.25,6.25,0,0,0-1.82,4.41V30.6h0v1.2h0v.72h0v.78h0v3.76a6,6,0,0,0,.34,2,6.25,6.25,0,0,0,5.4,4.2h9.44a6.25,6.25,0,0,0,5.4-4.2,6,6,0,0,0,.34-2V33.3h0v-.78Zm-4.18,3.31v1.22a2.06,2.06,0,0,1-1.82,2l-.24,0H84.84l-.24,0a2.06,2.06,0,0,1-1.82-2V35.83h0V33.72h0v-3h0V27.88a2,2,0,0,1,2-2.05H93.3a2,2,0,0,1,1.45.6,2.09,2.09,0,0,1,.6,1.45v2.83h0v5.12Z" transform="translate(-9.23 -5.11)"/><path class="cls-2" d="M189,32.52V31.8h0V30.6h0V27.89a6.23,6.23,0,0,0-5.77-6.23l-.44,0h-8.51l-.43,0a6.22,6.22,0,0,0-5.78,6.23V30.6h0v1.2h0v.72h0v.78h0v3.76a6,6,0,0,0,.34,2,6.23,6.23,0,0,0,5.4,4.2h9.44A6.22,6.22,0,0,0,189,37.06V33.3h0v-.78Zm-4.18,3.31v1.22a2.05,2.05,0,0,1-1.81,2l-.24,0h-8.45l-.24,0a2.05,2.05,0,0,1-1.81-2V35.83h0V33.72h0v-3h0V27.88a2,2,0,0,1,.6-1.45,2,2,0,0,1,1.44-.6h8.49a2,2,0,0,1,1.44.6,2,2,0,0,1,.6,1.45v2.83h0v5.12Z" transform="translate(-9.23 -5.11)"/><path class="cls-2" d="M207.84,39.48h-9c-.86,0-1.28-.32-1.28-1V21.92c0-.19-.11-.29-.33-.29h-4.14c-.22,0-.33.1-.33.29V38.17A5.06,5.06,0,0,0,194,41.82a5.87,5.87,0,0,0,3.9,1.41,2.25,2.25,0,0,0,.4,0h9.59c.22,0,.33-.1.33-.29v-3.2C208.17,39.57,208.06,39.48,207.84,39.48Z" transform="translate(-9.23 -5.11)"/><path class="cls-2" d="M121.9,21.63h-4.13c-.23,0-.33.1-.33.29V39c0,.2-.08.29-.24.29s-.26-.09-.33-.29l-.16-.54h0L113.43,27h0l-.78-2.51-.22-.71s0-.08,0-.12a2.88,2.88,0,0,0-1.22-1.47,6,6,0,0,0-3-.59,9.68,9.68,0,0,0-2.36.25,3.64,3.64,0,0,0-1.51.76,2.77,2.77,0,0,0-.7,1.05l-.09.27a5.05,5.05,0,0,0-.12.56,8.43,8.43,0,0,0-.11,1.39v16.9q0,.45.33.45h4.13q.33,0,.33-.45V25.88c0-.17.08-.26.23-.26s.24.09.3.26l.31,1h0l3.33,11.52h0l.06.18.1.34h0l.68,2.19a2.51,2.51,0,0,0,.43.78l0,0a4.37,4.37,0,0,0,.65.64,4.26,4.26,0,0,0,.85.49,2.07,2.07,0,0,0,.84.19h3A2.84,2.84,0,0,0,120.2,43a3.49,3.49,0,0,0,1.06-.8,1.66,1.66,0,0,0,.16-.21l.17-.21a7.45,7.45,0,0,0,.64-2.84v-17C122.23,21.73,122.12,21.63,121.9,21.63Z" transform="translate(-9.23 -5.11)"/><path class="cls-2" d="M142.63,21.64H126.39c-.22,0-.33.1-.33.31v3.43c0,.21.11.31.33.31h5.39c.22,0,.33.1.33.31V43c0,.21.11.31.33.31h4.13c.22,0,.33-.1.33-.31V26c0-.21.11-.31.34-.31h5.39c.22,0,.32-.1.32-.31V22C143,21.74,142.85,21.64,142.63,21.64Z" transform="translate(-9.23 -5.11)"/><path class="cls-2" d="M158.22,25.42h-6.48c-.22,0-.33.1-.33.29v.09H159A1.26,1.26,0,0,0,158.22,25.42Z" transform="translate(-9.23 -5.11)"/><polygon class="cls-2" points="150.04 20.98 150.04 20.98 150.04 20.98 150.04 20.98"/><path class="cls-2" d="M158.47,27.37a3.22,3.22,0,0,0,1.14-.27c.08-.11-.09-.53-.17-.73a1.51,1.51,0,0,0-1.28-.69h0Z" transform="translate(-9.23 -5.11)"/><path class="cls-2" d="M159.62,26.74a3,3,0,0,1,.08.32A3,3,0,0,0,159.62,26.74Z" transform="translate(-9.23 -5.11)"/><path class="cls-2" d="M159.49,26.46a1.12,1.12,0,0,1,.11.25A1.12,1.12,0,0,0,159.49,26.46Z" transform="translate(-9.23 -5.11)"/><path class="cls-2" d="M159.7,27.06a4.79,4.79,0,0,1,0,.68A4.7,4.7,0,0,0,159.7,27.06Z" transform="translate(-9.23 -5.11)"/><path class="cls-2" d="M164.64,42.07l-.24-.64h0l-.51-1.65-.93-2.5c-.17-.47-.36-.92-.57-1.36a7.05,7.05,0,0,0-1.08-1.53.27.27,0,0,1,0-.12.17.17,0,0,1,0-.14l.08-.09a6.1,6.1,0,0,0,.68-.38,6,6,0,0,0,2.32-5h0v-.83h0v-.67a9.68,9.68,0,0,0-.24-1.4,5.11,5.11,0,0,0-3.1-3.78,5,5,0,0,0-1.82-.34H147c-.22,0-.33.1-.33.31V43c0,.19.11.29.33.29h4.13c.22,0,.33-.1.33-.29V35.59q0-.3.33-.3h4a2.21,2.21,0,0,1,1.88,1.81l.81,2,.63,1.73.22.62.07.19.58,1.6v0h5Zm-4.89-14.26h0v.74h0a4.21,4.21,0,0,1-.24,1.26,2.12,2.12,0,0,1-.72,1,1.79,1.79,0,0,1-1,.41h-6c-.25,0-.37-.1-.37-.29V26c0-.21.11-.31.33-.31h6.42a1.51,1.51,0,0,1,1.28.69v0a.35.35,0,0,1,0,.08v0a1.12,1.12,0,0,1,.11.25l0,0a3,3,0,0,1,.08.32,4.7,4.7,0,0,1,0,.68s0,0,0,.06Z" transform="translate(-9.23 -5.11)"/><path class="cls-2" d="M159.74,28.55v0Z" transform="translate(-9.23 -5.11)"/><path class="cls-2" d="M159.48,26.43a.35.35,0,0,0,0-.08v0a.41.41,0,0,1,.05.09Z" transform="translate(-9.23 -5.11)"/><path class="cls-2" d="M159.74,27.81h0s0,0,0-.06Z" transform="translate(-9.23 -5.11)"/><path class="cls-2" d="M159.6,26.71l0,0Z" transform="translate(-9.23 -5.11)"/><path class="cls-2" d="M159.39,26.25l-.12-.15a2.72,2.72,0,0,1,.16.25A.55.55,0,0,1,159.39,26.25Z" transform="translate(-9.23 -5.11)"/></svg>